#!OML:ASF F:\VICON\USERDATA\INSTALL\rory3\rory3.ASF
:FULLY-SPECIFIED
:DEGREES
322
root -9.20982 14.5461 9.86755 18.5902 30.2433 9.3716
lowerback 32.4192 2.37144 -0.0638687
upperback 7.01158 3.43371 2.04296
thorax -9.06913 1.69436 0.925159
lowerneck -15.9918 -11.2452 -7.20297
upperneck 4.78823 -14.3358 7.6884
head 5.05428 -6.74521 2.1354
rclavicle 4.6118e-014 -1.74931e-014
rhumerus -8.89139 -32.6911 -54.7064
rradius 67.3337
rwrist 29.4869
rhand -34.0348 -9.55017
rfingers 7.12502
rthumb -7.21318 -39.4072
lclavicle 4.6118e-014 -1.74931e-014
lhumerus -47.299 30.6924 55.5572
lradius 60.8924
lwrist -3.20772
lhand -29.717 42.8565
lfingers 7.12502
lthumb -3.04415 72.8145
rfemur -76.9953 -18.6532 16.6518
rtibia 85.4546
rfoot -10.6604 0.140387
rtoes 4.85638
lfemur -31.0117 -22.3287 -5.89833
ltibia 70.5069
lfoot -24.3196 -17.7682
ltoes -33.3483
323
root -9.23263 14.5399 9.93656 18.9404 30.1639 9.63406
lowerback 31.9715 2.42728 -0.434215
upperback 7.47072 3.38811 2.03245
thorax -9.1418 1.69344 1.24162
lowerneck -16.1636 -11.2098 -7.0641
upperneck 4.71776 -14.2876 7.56321
head 5.0354 -6.72399 2.07787
rclavicle 2.8625e-014 -2.22639e-014
rhumerus -8.8055 -32.5718 -54.6161
rradius 67.2382
rwrist 28.9053
rhand -34.2665 -8.77478
rfingers 7.12502
rthumb -7.43683 -38.6241
lclavicle 2.8625e-014 -2.22639e-014
lhumerus -47.0615 30.6175 55.6822
lradius 60.9915
lwrist -3.14569
lhand -29.9598 42.5154
lfingers 7.12502
lthumb -3.27865 72.47
rfemur -77.2314 -18.5059 16.5755
rtibia 85.7585
rfoot -10.7803 0.0896411
rtoes 5.41201
lfemur -30.8677 -22.3014 -5.91965
ltibia 70.1326
lfoot -24.4565 -17.7868
ltoes -33.6363
324
root -9.2434 14.5451 9.99735 19.1869 30.1083 9.87199
lowerback 31.9496 2.40238 -0.444161
upperback 7.50437 3.34772 1.97906
thorax -9.08844 1.67518 1.20367
lowerneck -16.2676 -11.2651 -7.13625
upperneck 4.62452 -14.3498 7.70333
head 5.04298 -6.74614 2.1202
rclavicle 1.43125e-014 -4.29375e-014
rhumerus -8.84477 -32.6865 -54.4824
rradius 67.273
rwrist 28.6408
rhand -34.3424 -8.41139
rfingers 7.12502
rthumb -7.51009 -38.2581
lclavicle 1.43125e-014 -4.29375e-014
lhumerus -46.7902 30.429 55.8277
lradius 61.14
lwrist -3.1567
lhand -30.0425 41.779
lfingers 7.12502
lthumb -3.35854 71.7323
rfemur -77.3066 -18.4864 16.4834
rtibia 86.0173
rfoot -10.8972 0.0824136
rtoes 5.64486
lfemur -30.6229 -22.3378 -6.05288
ltibia 69.7562
lfoot -24.4558 -17.6938
ltoes -34.5362
325
root -9.25386 14.5523 10.0568 19.3821 30.0502 10.0664
lowerback 32.3501 2.32306 -0.317558
upperback 7.06444 3.27753 1.92919
thorax -8.98479 1.62755 1.00083
lowerneck -16.0303 -11.3956 -7.51968
upperneck 4.18653 -14.4988 8.29832
head 4.95602 -6.80406 2.3578
rclavicle -7.31528e-014 0
rhumerus -9.08686 -32.7189 -54.357
rradius 67.564
rwrist 28.7003
rhand -34.3261 -8.7031
rfingers 7.12502
rthumb -7.49438 -38.5503
lclavicle -7.31528e-014 0
lhumerus -46.4929 30.5026 55.8308
lradius 61.1562
lwrist -3.45947
lhand -29.7787 41.7485
lfingers 7.12502
lthumb -3.10371 71.7057
rfemur -77.3414 -18.4778 16.4158
rtibia 86.2442
rfoot -11.1725 0.12776
rtoes 5.10463
lfemur -30.3347 -22.3906 -6.17211
ltibia 69.3554
lfoot -24.1019 -17.5895
ltoes -35.0708
326
root -9.26819 14.5578 10.1177 19.4804 30.0381 10.0547
lowerback 32.5058 2.2066 -0.095931
upperback 7.01131 3.19584 1.85735
thorax -9.08694 1.58488 0.831093
lowerneck -15.3369 -11.4894 -7.68213
upperneck 3.37417 -14.6496 8.91997
head 4.67109 -6.88064 2.60377
rclavicle 6.20208e-014 -5.56597e-014
rhumerus -9.31223 -32.785 -54.4255
rradius 67.9737
rwrist 28.9153
rhand -34.2843 -9.49284
rfingers 7.12502
rthumb -7.45401 -39.3415
lclavicle 6.20208e-014 -5.56597e-014
lhumerus -46.2237 31.2508 55.5229
lradius 60.8277
lwrist -3.91398
lhand -29.7771 41.7158
lfingers 7.12502
lthumb -3.10217 71.673
rfemur -77.3708 -18.335 16.4982
rtibia 86.4621
rfoot -11.3711 0.142943
rtoes 3.9814
lfemur -30.0658 -22.4447 -6.05969
ltibia 68.9549
lfoot -23.7555 -17.402
ltoes -35.6907
327
root -9.28249 14.5574 10.1808 19.6472 29.9985 10.2172
lowerback 32.483 2.1114 -0.245018
upperback 7.0384 3.02957 1.86677
thorax -9.05206 1.51088 0.98245
lowerneck -16.231 -11.2781 -7.36623
upperneck 4.03292 -14.35 8.31309
head 4.91887 -6.72534 2.3531
rclavicle 6.36111e-015 -3.97569e-014
rhumerus -9.10871 -32.6582 -54.638
rradius 68.174
rwrist 29.0168
rhand -34.2879 -10.0248
rfingers 7.12502
rthumb -7.45746 -39.8733
lclavicle 6.36111e-015 -3.97569e-014
lhumerus -46.3035 32.6547 54.9271
lradius 60.2729
lwrist -4.89437
lhand -30.1277 40.7317
lfingers 7.12502
lthumb -3.44078 70.6837
rfemur -77.4303 -18.2612 16.4317
rtibia 86.7293
rfoot -11.529 0.166223
rtoes 3.64658
lfemur -29.7397 -22.5329 -6.11996
ltibia 68.5349
lfoot -23.6703 -17.1947
ltoes -36.3958
328
root -9.3014 14.5602 10.2453 19.897 29.899 10.3289
lowerback 32.3253 2.10814 -0.395335
upperback 7.00291 2.97028 1.82866
thorax -9.03193 1.48551 1.04779
lowerneck -16.5282 -11.2035 -7.13697
upperneck 4.26105 -14.2694 8.09741
head 4.99679 -6.68241 2.24557
rclavicle 1.59028e-015 7.79236e-014
rhumerus -9.21124 -32.6389 -54.7227
rradius 68.3318
rwrist 28.8937
rhand -34.2783 -9.73039
rfingers 7.12502
rthumb -7.44819 -39.5793
lclavicle 1.59028e-015 7.79236e-014
lhumerus -46.3451 35.4413 53.7301
lradius 58.8288
lwrist -7.47931
lhand -29.7235 38.9543
lfingers 7.12502
lthumb -3.05043 68.9123
rfemur -77.5923 -18.0803 16.4651
rtibia 86.9354
rfoot -11.5974 0.0788315
rtoes 3.45984
lfemur -29.6094 -22.4706 -6.08641
ltibia 68.1333
lfoot -23.5669 -17.1549
ltoes -36.4979
329
root -9.31367 14.5725 10.3164 19.9849 29.8738 10.4083
lowerback 31.9913 2.11746 -0.400607
upperback 7.4162 2.98095 1.78832
thorax -9.18479 1.5023 1.10101
lowerneck -16.2665 -11.2473 -7.08698
upperneck 3.92038 -14.3396 8.15475
head 4.85579 -6.72688 2.26899
rclavicle -7.95139e-015 4.13472e-014
rhumerus -9.55745 -32.7751 -54.523
rradius 68.5256
rwrist 28.6919
rhand -34.077 -9.39506
rfingers 7.12502
rthumb -7.25392 -39.2507
lclavicle -7.95139e-015 4.13472e-014
lhumerus -45.8578 32.0998 54.8886
lradius 60.6032
lwrist -4.78106
lhand -29.6624 41.0377
lfingers 7.12502
lthumb -2.9914 70.9965
rfemur -77.4335 -17.9793 16.4817
rtibia 87.0927
rfoot -11.8128 0.000620343
rtoes 3.14163
lfemur -29.23 -22.5911 -6.11356
ltibia 67.6785
lfoot -23.2796 -17.2659
ltoes -36.114
330
root -9.31809 14.5832 10.3795 20.0269 29.9574 10.4585
lowerback 32.3468 1.99351 -0.123917
upperback 6.88978 2.90593 1.75653
thorax -9.14697 1.44994 0.847538
lowerneck -15.7231 -11.279 -7.09111
upperneck 3.45387 -14.4087 8.38336
head 4.65082 -6.77206 2.36834
rclavicle 2.54444e-014 2.06736e-014
rhumerus -9.97546 -32.7822 -54.3165
rradius 68.4681
rwrist 28.534
rhand -34.1252 -8.98459
rfingers 7.12502
rthumb -7.30038 -38.8387
lclavicle 2.54444e-014 2.06736e-014
lhumerus -45.6146 30.7105 55.177
lradius 61.2423
lwrist -3.89105
lhand -30.0118 41.0264
lfingers 7.12502
lthumb -3.32887 70.9801
rfemur -77.1934 -18.0715 16.5488
rtibia 87.2198
rfoot -12.1615 0.0427774
rtoes 2.89144
lfemur -28.8235 -22.7643 -6.12558
ltibia 67.2244
lfoot -23.2081 -16.9928
ltoes -36.7643
331
root -9.32082 14.5917 10.4351 20.3751 29.8368 10.7453
lowerback 32.351 1.88543 -0.06063
upperback 6.7065 2.76218 1.52632
thorax -9.33158 1.37961 0.61988
lowerneck -15.2868 -11.2392 -6.95963
upperneck 3.22465 -14.4176 8.64684
head 4.52656 -6.77649 2.454
rclavicle 2.38542e-014 -2.06736e-014
rhumerus -10.3889 -32.6968 -54.224
rradius 68.4425
rwrist 28.4692
rhand -34.3422 -8.97566
rfingers 7.12502
rthumb -7.50987 -38.8224
lclavicle 2.38542e-014 -2.06736e-014
lhumerus -45.5333 30.3004 54.8928
lradius 61.3139
lwrist -3.91503
lhand -29.9472 40.5617
lfingers 7.12502
lthumb -3.26649 70.5165
rfemur -77.3015 -18.1206 16.4343
rtibia 87.3426
rfoot -12.3608 0.0723596
rtoes 1.52341
lfemur -28.5866 -22.8589 -6.37416
ltibia 66.7444
lfoot -23.1019 -16.7285
ltoes -36.7793
332
root -9.33168 14.6021 10.4964 20.6948 29.6361 10.9518
lowerback 31.9113 1.86387 -0.260661
upperback 7.11036 2.66419 1.46533
thorax -9.46785 1.34697 0.772713
lowerneck -15.3688 -11.2202 -6.99403
upperneck 3.18498 -14.3827 8.6975
head 4.53104 -6.75561 2.47507
rclavicle 5.08889e-014 -2.22639e-014
rhumerus -10.4732 -32.5699 -54.195
rradius 68.703
rwrist 28.4494
rhand -34.319 -9.03222
rfingers 7.12502
rthumb -7.48745 -38.8797
lclavicle 5.08889e-014 -2.22639e-014
lhumerus -45.3843 29.9292 54.9286
lradius 61.6044
lwrist -3.9861
lhand -29.5943 42.2993
lfingers 7.12502
lthumb -2.92564 72.259
rfemur -77.4307 -17.9697 16.3794
rtibia 87.4389
rfoot -12.425 0.0295561
rtoes 1.12192
lfemur -28.3177 -22.8517 -6.51779
ltibia 66.2171
lfoot -22.9013 -16.638
ltoes -36.4422
333
root -9.3456 14.6159 10.5649 20.8618 29.6274 11.0145
lowerback 31.6566 1.8123 -0.396415
upperback 7.20772 2.57219 1.59502
thorax -9.24489 1.30989 1.04157
lowerneck -16.0126 -11.1741 -6.97937
upperneck 3.39333 -14.2654 8.35942
head 4.65677 -6.69481 2.35003
rclavicle 6.36111e-015 -7.95139e-015
rhumerus -10.3074 -32.5808 -54.1655
rradius 68.8899
rwrist 28.7627
rhand -34.2061 -9.07242
rfingers 7.12502
rthumb -7.37851 -38.9238
lclavicle 6.36111e-015 -7.95139e-015
lhumerus -45.1272 29.8303 55.135
lradius 61.9073
lwrist -4.15646
lhand -29.5073 43.7432
lfingers 7.12502
lthumb -2.84164 73.704
rfemur -77.3553 -17.9189 16.5007
rtibia 87.4967
rfoot -12.6004 -0.0271624
rtoes 2.18417
lfemur -27.9934 -22.9082 -6.46034
ltibia 65.6888
lfoot -22.7134 -16.5699
ltoes -36.4223
334
root -9.35748 14.6265 10.6351 21.0799 29.5841 11.1488
lowerback 31.3784 1.7947 -0.562476
upperback 7.26047 2.50526 1.65859
thorax -9.05996 1.28323 1.24214
lowerneck -16.4608 -11.1365 -7.05385
upperneck 3.71231 -14.1921 8.35599
head 4.82506 -6.64073 2.3385
rclavicle -9.54166e-015 -3.65764e-014
rhumerus -10.3319 -32.5098 -53.998
rradius 68.9958
rwrist 28.9122
rhand -34.2037 -9.37124
rfingers 7.12502
rthumb -7.37617 -39.2227
lclavicle -9.54166e-015 -3.65764e-014
lhumerus -44.871 29.9667 55.1246
lradius 61.8844
lwrist -4.4906
lhand -29.9265 42.0805
lfingers 7.12502
lthumb -3.24646 72.0356
rfemur -77.3539 -17.9449 16.6179
rtibia 87.576
rfoot -12.7911 -0.0815256
rtoes 2.27311
lfemur -27.6839 -22.9453 -6.47893
ltibia 65.1597
lfoot -22.4265 -16.6308
ltoes -36.5692
335
root -9.36873 14.6329 10.6985 21.2695 29.2658 11.1641
lowerback 31.223 1.90582 -0.734689
upperback 7.20267 2.58909 1.67148
thorax -9.06257 1.32379 1.3274
lowerneck -16.2539 -11.1765 -7.09626
upperneck 3.55282 -14.2524 8.47911
head 4.7609 -6.6729 2.38807
rclavicle -2.06736e-014 -3.65764e-014
rhumerus -10.5908 -32.5049 -53.8341
rradius 69.1938
rwrist 28.9535
rhand -34.1928 -9.57484
rfingers 7.12502
rthumb -7.36569 -39.4266
lclavicle -2.06736e-014 -3.65764e-014
lhumerus -44.6688 29.8191 55.2008
lradius 62.1108
lwrist -4.37937
lhand -30.2841 41.0774
lfingers 7.12502
lthumb -3.59181 71.0269
rfemur -77.4732 -17.6306 16.7612
rtibia 87.615
rfoot -12.8311 -0.228548
rtoes 1.67216
lfemur -27.356 -22.7638 -6.52687
ltibia 64.6723
lfoot -22.3529 -16.3983
ltoes -36.6712
336
root -9.37887 14.6408 10.7574 21.3355 28.9333 11.057
lowerback 31.2333 1.9295 -0.734781
upperback 7.11367 2.61013 1.63231
thorax -9.16845 1.33135 1.27385
lowerneck -15.7114 -11.1789 -7.08087
upperneck 2.81496 -14.2671 8.72321
head 4.46808 -6.69726 2.50252
rclavicle -1.74931e-014 -4.92986e-014
rhumerus -10.8275 -32.498 -53.8441
rradius 69.3985
rwrist 29.1315
rhand -34.2142 -9.54017
rfingers 7.12502
rthumb -7.3863 -39.3912
lclavicle -1.74931e-014 -4.92986e-014
lhumerus -44.4859 29.5537 55.2966
lradius 62.5971
lwrist -4.10324
lhand -29.9345 42.4825
lfingers 7.12502
lthumb -3.25419 72.4374
rfemur -77.5113 -17.2463 16.9717
rtibia 87.6234
rfoot -12.9074 -0.404823
rtoes 1.92611
lfemur -26.9361 -22.5879 -6.51921
ltibia 64.1949
lfoot -22.2049 -16.0546
ltoes -36.5752
